<svg version="1.0" xmlns="http://www.w3.org/2000/svg" width="1706.667" height="1706.667" viewBox="0 0 1280 1280"><path d="M750.5 124.1c-3.3.5-9 1.3-12.7 1.7-3.7.4-7.3 1.3-7.9 1.9-.7.7-.7 2.6.1 6.4.6 3 1.6 9.3 2.1 14.2l1 8.7-5 9.6c-2.8 5.3-5.1 10.3-5.1 11.2 0 3.1 7.6 13.5 16.9 23.2 9.7 10 11.1 12.8 11.1 21.1 0 2.6.7 6.6 1.5 8.9.8 2.3 1.5 5.5 1.5 7s.7 5 1.6 7.8c2.6 7.9 1.4 11.4-4.9 15.5l-5.2 3.5-17.4-.9c-9.5-.5-18.3-1.1-19.4-1.5-1.1-.3-12.1-.6-24.4-.6-20.8.1-29.2.6-47.8 3.3-3.8.5-10.6 1.4-14.9 2-4.4.5-8.5 1.4-9.1 1.9-.6.5-4 1.4-7.6 1.9-3.5.5-9.5 1.9-13.4 3.1-3.8 1.2-8.8 2.5-11 3-7.4 1.6-13 3.3-15 4.7-1.1.7-2.8 1.3-3.8 1.3-1.9 0-6.5 1.8-12 4.6-1.6.8-3.5 1.4-4.4 1.4-2.8 0-41.3 18.8-42.6 20.7-.4.7-1.3 1.3-2 1.3-1.1 0-5.8 3-21.2 13.4-2.7 1.9-6.7 5-8.9 7-2.1 2-4.1 3.6-4.4 3.6-2.2 0-31.2 28.8-31.2 30.9 0 .4-1.8 2.6-4 5-5.7 6.1-16.1 22.3-21.3 33.2-8.6 18.1-9.7 20.6-9.7 22.6 0 1.2-.7 3.4-1.5 4.9-.8 1.6-1.5 3.8-1.5 4.9-.1 1.1-.7 3.1-1.5 4.5s-1.4 3.9-1.5 5.5c0 1.7-.7 4.1-1.6 5.3-4.9 7-4.9 50.4 0 57.4.9 1.2 1.6 3 1.6 4s1 3.4 2.1 5.5c1.2 2.1 3.3 5.8 4.7 8.3 1.3 2.5 3.1 5.2 3.8 6.1.8.8 1.4 1.9 1.4 2.3 0 .4 1.9 3.2 4.3 6.3 2.3 3.1 5 7 6 8.7 1.1 1.7 2.7 4 3.6 5.1 1 1.1 2.4 3.1 3.3 4.5.9 1.4 3.3 4.5 5.4 6.8 2 2.3 4.4 5.3 5.3 6.6 2.5 3.8 22.4 27.5 28.5 34 3.1 3.2 5.6 6.2 5.6 6.5 0 .4 1.2 2 2.8 3.7 14.2 15.7 17.9 20.2 19.8 24.2 1.3 2.6 2.4 5.2 2.4 5.8 0 .9 2.6 8.9 14.6 44.9.9 2.7 2.5 7.5 3.6 10.5 3.6 9.9 5.1 15.4 5.5 20.5l.5 5-14.3 14.5c-7.8 8-17.8 18.5-22.2 23.5-4.5 4.9-9.2 10-10.5 11.3l-2.4 2.3-2.2-2c-1.2-1.2-2.7-2.1-3.3-2.1-.5 0-1.8-.9-2.8-2-1-1.1-2.1-2-2.6-2-.4 0-3.7-1.8-7.3-4-3.6-2.2-6.9-4-7.3-4-.3 0-1.4-.6-2.2-1.4-2.1-1.9-14.8-8.6-16.3-8.6-.6 0-4-1.3-7.5-3-3.4-1.6-7.3-3-8.5-3-1.2 0-2.9-.6-3.7-1.4-1.8-1.5-12.9-4.6-16.7-4.6-1.4 0-3.9-.8-5.7-1.7-3.2-1.7-8.2-2.3-32.4-4.2-18-1.4-54.1 1.1-60 4.2-1.8.9-4.6 1.7-6.4 1.7-3.9 0-16.6 3.7-17.4 5-.3.6-1.6 1-2.8 1-1.2 0-4.9 1.4-8.2 3-3.3 1.6-6.6 3-7.3 3-1.1 0-14.2 6.6-19 9.5-1 .6-4.8 2.9-8.7 5.2-7.2 4.4-9.7 6.2-21.2 15.1-7.6 5.9-24.4 22.1-27.6 26.7-1.2 1.6-4.5 5.8-7.4 9.3-2.9 3.4-5.3 6.6-5.3 7.1 0 .4-1.4 2.6-3.1 4.7-1.7 2.2-3.5 4.8-4.1 5.9-.5 1.1-2 3.8-3.3 6-2.4 4-5.8 10.7-6.9 13.5-.4.8-1.7 3.5-3.1 5.9-1.4 2.4-2.5 5.1-2.5 5.9 0 .9-.6 2.3-1.4 3.1-.7.9-2.1 4.3-3 7.6-.9 3.3-2.2 7.3-2.8 9-1.9 5.4-4 14.9-4.5 20-.2 2.7-1.2 6.6-2.1 8.5-1.5 3.1-1.7 7.5-1.7 35.5 0 28.6.2 32.3 1.7 35.2 1 1.8 1.8 4.7 1.8 6.6 0 3.2 2.6 14.6 4.9 21.2.5 1.6 1.8 5.7 2.7 9 1 3.3 2.4 6.7 3.1 7.6.7.8 1.3 2.2 1.3 2.9 0 1.8 3.9 9.8 5.1 10.6.5.3.9 1.1.9 1.8 0 1.3 2.9 8 5.3 12.1 3.5 6.1 8.3 13.1 9.4 13.8.7.4 1.3 1.2 1.3 1.8 0 1 9.6 14.6 10.8 15.1.4.2 2.5 2.5 4.6 5.3 4.5 5.8 7.4 8.7 17.1 17.4 10 9 10.5 9.4 16 13.1 2.8 1.8 6.1 4.3 7.5 5.5 4.3 3.7 27.1 16.5 29.5 16.5.8 0 1.5.4 1.5.8 0 1 9.8 5.2 12.1 5.2 1.7 0 3.9 1.9 3.9 3.3 0 .5-2.1.6-4.8.2-7-.9-19.3-1-90.2-.1-35.5.4-70.3 1.2-77.5 1.8-7.1.6-16.8 1.3-21.5 1.7l-8.5.6-.3 3.9c-.7 8.6-1.5 8.2 18.5 8.9 9.8.4 27.3 1.2 38.8 1.9 27.9 1.6 190.3 1.6 222.5 0 12.9-.6 31.4-1.4 41-1.7 9.6-.4 18.9-1 20.5-1.5 1.7-.5 8.9-1.4 16.2-1.9 13.1-.9 17.8-2.2 17-4.4-.6-1.9-18.7-4.7-30.5-4.7-3.4 0-6.2-.4-6.2-.8s3.8-1.8 8.6-3.2c4.7-1.3 8.7-2.7 9-3.2.3-.4 1.4-.8 2.4-.8 2.7 0 27.8-13.1 38-19.7 8.6-5.7 14.9-10.4 18.2-13.5 1-1 2.2-1.8 2.8-1.8.5 0 3.6-2.6 6.9-5.7 3.2-3.2 8-7.8 10.6-10.3 2.6-2.5 7.2-7.8 10.2-11.8 3-4 6.6-8.4 7.9-9.9 1.3-1.4 2.6-3.3 2.9-4.4.3-1 1.9-3.2 3.6-5 1.6-1.7 2.9-3.9 2.9-4.9 0-1 .6-2 1.3-2.3.6-.3 2.1-2.2 3.2-4.3 1-2.2 2.6-5 3.5-6.4 2.1-3.1 13.6-30.6 14.3-34 .3-1.4 1.5-5.2 2.7-8.5 1.2-3.3 2.4-8.7 2.7-12 .2-3.3.9-7.2 1.5-8.8 1.8-4.7 9.8-4.9 9.8-.2 0 1.3.5 2.5 1 2.7.6.2 1.2 2.4 1.4 5 .1 2.8 1 5.5 2 6.7.9 1 1.6 2.5 1.4 3.3-.1.7 1 2.6 2.5 4.3 1.6 1.6 3.1 4.2 3.4 5.7.3 1.8 1.2 2.8 2.3 2.8 2.1 0 3.6 1.7 4.2 4.5.2 1.1 1.2 2.1 2.2 2.3 1 .2 2.8 1.5 4 2.9 1.4 1.6 3.3 2.6 5 2.6 1.9-.1 3 .6 3.6 2.2.9 2.4 2.9 3.5 6.3 3.5 1.1 0 2.9.8 3.9 1.7 1.8 1.6 5.1 2 18.3 2.1 11.8.1 15.3-.3 17.2-2 1.1-1 3.4-1.8 5.1-1.8 2.2 0 3.5-.6 4.3-2.2 1.5-2.9 2.8-3.8 5.6-3.8 1.2 0 2.7-.9 3.3-2 .6-1.1 1.7-2 2.4-2 1.5 0 5.6-4.2 5.6-5.7 0-.7.9-1.5 2.1-1.8 1.1-.4 2.7-2.1 3.4-3.9.8-1.8 2.1-3.8 2.9-4.5.8-.7 1.8-2.5 2.1-4.1.3-1.6 1.3-3.4 2.1-4.1.8-.6 1.4-2.9 1.4-5s.5-4.1 1-4.4c.6-.3 1-2.1 1-4 0-2.2.6-3.5 1.7-3.9 1-.4 14.4-.4 29.8-.1 17.9.4 28.9.3 30.6-.3 3.1-1.2 6.1-6.9 5.2-10l-.5-2.2h43.3l2.4-2.5c3.5-3.4 3.6-12.1.3-15.2-3.4-3.1-9.6-5.5-16.3-6.3-11.9-1.5-20.1-3.2-23.5-5-1.9-.9-4.7-2-6.2-2.4-2.8-.6-10.8-8.2-10.8-10.2 0-.7-1.6-2.6-3.5-4.3-2.6-2.2-4.6-3.1-7.1-3.1-2.9 0-3.5-.3-3.2-1.7.3-1.5-3.4-10-7.1-16.3-.5-.8-2.1-4.6-3.5-8.4-2.6-6.6-2.6-6.9-1-9.4 1.7-2.5 7.6-10.3 12.9-16.8 1.4-1.8 2.5-3.5 2.5-3.9 0-.3 2.1-3.2 4.8-6.3 5.2-6.2 7.8-9.6 12-15.7 1.5-2.1 3.8-5.1 5.1-6.5 2.1-2.3 11.1-13.8 19.4-24.8 1.7-2.3 5.9-7.7 9.2-12 3.3-4.2 9.3-12 13.2-17.2 3.9-5.2 9.8-12.9 13-17 3.2-4.1 6.5-8.5 7.3-9.6 3.1-4.4 16.6-22.1 20.5-26.9 2.2-2.8 5.4-7 7-9.5 1.6-2.5 3.9-5.4 5-6.6 1.1-1.1 5.2-6.3 9-11.4 3.9-5.2 8.2-10.6 9.6-12 1.4-1.4 2.8-3.2 3.2-4 1.8-3.9 21.5-29 22.7-29 1.7 0 3.8 4.3 7.4 15 1.9 5.8 4.9 14.1 6.7 18.5 3.5 8.9 3.8 9.5 7 18 1.3 3.3 2.7 6.4 3.1 7 .4.5.8 1.6.8 2.4 0 .8.8 3.3 1.8 5.5 1.7 3.9 3.9 9.9 8.3 22.5 2.3 6.5 2.3 6.1.4 6.1-.8 0-2.3.9-3.2 2-1 1.1-2.5 2-3.4 2-.9 0-2.4.9-3.4 2s-2.4 2-3.2 2c-.8 0-2.9 1.1-4.7 2.5-1.8 1.4-3.6 2.5-3.9 2.5-.9 0-14.9 10-16.2 11.5-.5.7-2.6 2.3-4.5 3.6-4.9 3.3-5 3.4-15.7 13.9-8.3 8.1-16.3 17.1-16.3 18.4 0 .2-1.8 2.3-4.1 4.7-2.2 2.4-4.6 5.5-5.2 6.9-.7 1.4-3.8 6.4-6.9 11.2-3.2 4.7-5.8 9-5.8 9.4 0 .4-.6 1.5-1.3 2.3-.7.9-2.1 3.6-3.1 6.1-2.4 6-5.5 13.1-6.7 15.2-.5 1-.9 2.8-.9 4 0 1.2-.7 2.9-1.6 3.9-1.6 1.8-2.9 5.9-4.4 14.3-.5 2.6-1.6 5.8-2.4 7-.7 1.2-1.6 4.7-1.9 7.7-.3 3-1 9.4-1.7 14.4-1.5 11.3-1.6 46.2-.1 57.5 2.1 16.6 2.9 20.5 4.5 23.5.9 1.6 1.6 4.1 1.6 5.4 0 3 1.6 8.4 4.1 13.6 1 2.2 1.9 4.6 1.9 5.3 0 .8.6 2.6 1.3 4 .8 1.5 2.1 4.3 2.9 6.2 2.5 5.9 9.7 20.3 11.6 23.1.9 1.5 3.6 5.8 6 9.6 2.4 3.9 6 8.9 8.1 11.1 2 2.3 4.4 5.4 5.2 6.9 2.2 4.4 27.4 29.1 30.3 29.9 1.4.3 2.6 1.1 2.6 1.8.1.6 2.4 2.7 5.2 4.6 2.8 1.9 6.4 4.7 8.2 6.1 1.7 1.5 4.9 3.6 7.1 4.8 21.3 11.5 32.4 17 34.5 17.1 2.6.1 7.7 3.6 6.7 4.7-.4.3-1.9 0-3.5-.6-1.5-.7-5-1.1-7.8-1.1-2.7 0-19.2.1-36.7.1-45.7-.1-132.3 1.7-145.2 2.9-6 .5-17.3 1.4-25 1.9-18.4 1.3-29.5 3-29.5 4.7 0 2.3 5.6 4.4 11.7 4.4 3.3 0 11 .7 17.3 1.5 27.8 3.6 101.4 5.5 198 5 39.9-.1 81.1-.8 91.5-1.4 10.5-.6 26.6-1.3 35.8-1.6 9.2-.2 19.6-.9 23-1.4 3.4-.5 10.7-1.3 16.2-1.6 10.5-.8 17-2.6 16.3-4.7-.7-1.9-16.1-4.8-25.8-4.8-2.8 0-5-.4-5-.8 0-.5 2.9-1.4 6.4-2.1 3.6-.7 8.1-2.2 10-3.2 2-1 4.4-1.9 5.3-1.9 2.2 0 11.3-4.1 11.3-5.2 0-.4.7-.8 1.6-.8.9 0 2.8-.8 4.2-1.8 1.5-1 5-2.9 7.7-4.2 2.8-1.3 5.2-2.6 5.5-2.9.3-.3 2.5-1.7 5-3 4.1-2.3 11.4-7.7 18.1-13.4 1.4-1.2 3.7-2.8 5-3.5 5-2.7 28.1-26.3 30.1-30.8.6-1.3 1.5-2.4 1.9-2.4.5 0 2.1-1.9 3.6-4.2 1.6-2.2 3.5-5.1 4.3-6.3 6-8.5 10.6-16.3 14.7-24.5 2.5-5.2 5-10.2 5.5-11 .8-1.6.9-1.8 3.5-8.5.8-2.2 2-4.9 2.6-6 .6-1.1 1.4-3.6 1.8-5.5 3-12.8 3.8-15.9 4.7-17.6 2-3.8 3.7-16.8 5.8-42.7 1.1-15.1-2.7-50.9-6.2-57.9-.8-1.5-1.4-3.8-1.4-5.1 0-2.8-2.5-11.6-4.5-16.2-.7-1.7-1.6-3.9-1.8-5-1.1-4.2-3.4-9.6-4.5-10.7-.7-.7-1.2-1.7-1.2-2.3 0-.7-2-5-4.5-9.6s-5-9.3-5.5-10.4c-2.6-5-16-24.5-16.9-24.5-.4 0-1.2-1-1.8-2.2-1.8-4-21.1-23.5-30.6-31-5-3.9-9.9-7.9-10.9-8.7-3.1-2.7-18.9-12.1-20.3-12.1-.7 0-1.8-.7-2.5-1.5-2-2.4-25.1-13.2-30.4-14.2-1.7-.3-4-1.1-5.1-1.8-2.5-1.6-13.7-4.5-17.1-4.5-1.4 0-3.9-.8-5.7-1.7-1.8-.9-6.6-2-10.7-2.4-4.1-.4-13.2-1.2-20.3-1.9-9.8-.9-16.1-.9-27.5 0-25.3 1.9-30.6 2.6-33.7 4.2-1.6.8-5.8 1.8-9.2 2.1-5.8.6-6.2.5-6.8-1.6-.4-1.2-1.9-5.6-3.5-9.7-10.5-28.2-15.3-40.9-16.5-43.5-.8-1.7-2.3-5.5-3.4-8.5s-2.9-7.9-4-10.8c-1.2-2.8-3-7.6-4.2-10.5-1.1-2.8-2.5-6.6-3-8.4-.5-1.8-1.4-3.5-1.9-3.8-.6-.4-1-1.4-1-2.3 0-2.1-5.9-18.1-7.7-20.7-.7-1.1-1.3-2.6-1.3-3.3 0-.8-.7-2.8-1.5-4.5-2.5-5.4-6.4-17.5-5.7-18.1.3-.3 11.9-.6 25.9-.6H951l3.1 2.7c5.1 4.6 11 7.3 15.9 7.3 7.4-.1 18.3-1.9 20-3.5.9-.8 2.1-1.5 2.6-1.5 2-.1 9.3-7.8 10.8-11.4 4.2-10.2-.8-24.7-11.1-31.6-8.6-5.9-15-8-29.3-9.9-10.8-1.5-19.7-5.6-34.5-15.9-7.9-5.5-10-7.2-24.4-19.4-18.1-15.5-35.2-28.7-46.1-35.7-8.4-5.3-27.4-15.1-29.5-15.1-2.1 0-6.5-4-6.5-6 0-1.1-1.1-4-2.5-6.6-1.4-2.6-2.5-5.3-2.5-6.1 0-.7-.4-2.1-.9-3.1-2-3.5-8.1-18-8.1-19s-2.4-6.3-5.1-11.4c-.5-1-.9-2.8-.9-4 0-1.2-.4-3.5-.9-5.2-.6-1.7-1.9-6.9-3.1-11.6-1.1-4.7-2.5-9.4-3-10.5-.5-1.1-1.4-3.9-2-6.2-.6-2.3-1.5-4.5-2-4.8-.6-.3-1-1.8-1-3.3 0-1.5-.7-3.6-1.5-4.6-.8-1.1-1.5-2.9-1.5-4.1 0-1.2-.7-3-1.5-4.1-.8-1-1.5-2.5-1.5-3.2 0-.8-1.6-4.6-3.5-8.5-1.9-3.9-3.5-7.5-3.5-8 0-.4-1.8-4.6-4-9.3-2.2-4.7-4-9.6-4-10.8 0-2.1.6-2.4 6.1-3 7.7-.8 16.3-.8 21 0 3.2.5 3.6 1 4.5 4.8.8 3.6 1.3 4.1 3.9 4.4 2.2.2 3.7-.4 5.4-2.2l2.3-2.4 3.1 1.9c4.6 2.7 12.7 4.3 18.3 3.5 4.3-.7 5.6-1.5 10.4-6.5 3-3.2 7-8.8 8.8-12.4l3.3-6.7h5.9c6.6 0 10.8-2.6 9.5-5.8-.4-.9-1-5.5-1.5-10.2-.4-4.7-1.1-10.1-1.5-12.1-.5-2.7-.2-4.4 1.4-7 1.2-1.9 2.1-4.6 2.1-6 0-1.4 1-3.4 2.1-4.5 3.8-3.3 7.9-9.6 7.9-12 0-1.2.7-2.9 1.5-3.8 1.3-1.3 1.9-1.3 5 0 5.2 2.1 11.2 1.9 12.5-.6.6-1.1.9-2.4.6-2.8-.3-.5-.1-3.7.4-7.2 2.1-14.5-3.1-33.8-13.6-50.6-6.8-10.9-22.1-25.3-33.9-32-11-6.3-25.3-10.8-42.5-13.5-9.3-1.5-53.4-2-61.5-.8zm-26.6 274.5c1.7 2.5 3.8 5.9 4.7 7.6.9 1.7 2 3.6 2.5 4.2 2.4 2.9 7.7 11.4 8.3 13.1.3 1.1 1.9 3.5 3.6 5.3 1.6 1.8 3 3.9 3 4.6 0 .8.7 1.9 1.5 2.6.8.7 1.5 2.2 1.5 3.4 0 1.2 1.4 4.3 3 6.9 1.7 2.6 3 5.2 3 5.8 0 1.2 14.8 31.1 19.1 38.6 2.4 4.3 4.8 6.4 12.7 11.7 13.4 8.8 48.5 25.7 72.2 34.6 4.7 1.8 9.4 3.7 10.5 4.3 1.1.6 5.4 2.3 9.5 3.8s11.1 4 15.5 5.7c13.3 5 21.5 7.9 32.5 11.2 13.7 4.2 17.2 5.9 16.8 8.5-.3 2-1.2 2-42.5 2.5l-42.2.5-3 2.9c-2.7 2.6-3.1 3.7-3.1 8.4 0 4.6.4 5.8 2.9 8.3 1.6 1.6 3.6 2.9 4.5 2.9.9 0 2.2 1 3 2.2 2.3 3.5 5.9 15.5 5.3 17.3-.8 2-4.7 3.4-22.7 8-7.1 1.8-15.3 4.1-21.5 6.1-2.2.6-6.9 2-10.5 2.9-3.6.9-8 2.4-9.8 3.2-1.7.9-5.1 2-7.5 2.4-5.8 1-33.8 8.7-35.8 9.8-.9.5-4.7 1.7-8.5 2.6-3.8.9-9.4 2.4-12.4 3.4s-7.7 2.6-10.5 3.5c-2.7.9-6.2 1.6-7.6 1.6-1.5 0-3.2.7-3.9 1.5-.7.8-2.5 1.5-4.1 1.5-1.6 0-4.6.6-6.6 1.4-5.2 1.9-22.7 7.2-28.6 8.7-4.4 1.1-5 1-6.6-.7-1-1-2.8-4.7-4.1-8.1-1.2-3.4-2.8-6.8-3.6-7.4-.8-.6-1.4-1.8-1.4-2.6 0-1.5-4.2-9.3-11.1-20.3-2.3-3.6-6.4-10.3-9.2-15-2.8-4.7-7.6-12.1-10.5-16.4-3-4.3-5.9-9.5-6.4-11.5-1-3.4-2.1-5.2-7.9-12.4-1.4-1.8-3.6-5-4.9-7.2-2.8-4.6-6.8-9.5-19.9-24.4-5.2-5.8-10.2-11.5-11-12.6-2.2-2.7-11.5-12.4-29.5-31-8.6-8.8-15.6-16.7-15.6-17.5 0-.8 1.7-2.9 3.7-4.5 3.9-3.2 13.8-11.6 16.3-14 2.2-1.9 26.3-18.1 30.8-20.6 2.1-1.1 6.4-3.6 9.7-5.5 3.3-1.9 8-4.4 10.5-5.5 2.5-1.1 5.8-2.7 7.4-3.5 1.6-.8 3.3-1.4 3.8-1.4.4 0 3.6-1.3 7-2.9 3.5-1.6 7.7-3.3 9.3-3.7 1.7-.4 3.9-1.3 5-1.9 1.1-.7 5.8-2.3 10.5-3.5 4.7-1.2 8.9-2.6 9.4-3.1.6-.5 2.7-.9 4.7-.9 2.1 0 4-.4 4.3-.9.3-.4 2.8-1.1 5.5-1.5 2.7-.3 5.4-1.3 6.1-2.1.7-.8 2.7-1.5 4.4-1.5 1.7 0 4-.6 5.1-1.4 1.1-.7 3.1-1.7 4.5-2 5.6-1.6 16.6-6 18-7.1.8-.7 2.9-1.7 4.5-2.3 1.7-.6 3.1-1.1 3.2-1.1.1-.1 1.5 1.9 3.2 4.5zM843 660.8c0 .5-1.9 3.1-4.2 6-2.4 2.8-5.5 6.8-7.1 8.9-1.5 2.1-4.5 6-6.8 8.8-2.2 2.7-7.1 9-10.8 14-3.7 4.9-8.2 10.6-9.9 12.5-1.8 1.9-3.2 3.8-3.2 4.3s-1.9 3.2-4.3 6c-5.6 6.9-8 10.1-12.3 16.4-1.9 2.9-3.9 5.3-4.3 5.3-.5 0-2.4 2.2-4.2 4.9-3.8 5.4-12.9 17.5-20.1 26.6-6.5 8.2-10.4 13.3-13.6 17.7-10.8 15-45.6 58.8-46.5 58.5-1.1-.3-3.5-7.6-4.3-13.2-.5-3.1-2.8-13.7-4.6-21.5-.5-2.5-1.4-7.7-1.8-11.5-.5-3.9-1.3-9.5-1.9-12.5-3.8-20.7-6.2-44-6.8-66.2l-.4-18.7 2.8-.6c3.5-.7 9-2.2 16.8-4.6 3.3-.9 9.4-2.7 13.5-4 4.1-1.2 7.9-2.6 8.5-3.1.5-.4 1.9-.8 3-.8 1.2 0 4.1-.6 6.6-1.4 2.4-.7 7.3-2.1 10.9-3.1 3.6-.9 10.4-3 15.2-4.6 4.8-1.6 9.6-2.9 10.7-2.9 1.1 0 3.5-.6 5.3-1.4 3.1-1.3 7.5-2.6 20.1-6 11.7-3.1 17.5-4.9 22.2-6.7 2.8-1 6.2-1.9 7.5-2 1.4-.1 5.9-1.4 10-2.9 7.4-2.7 14-3.7 14-2.2zM610 761.3c0 2.9.7 7.9 1.5 11 .8 3.2 1.5 7 1.5 8.5.1 1.5.7 3.8 1.5 5.2.8 1.4 1.4 3.6 1.5 5 0 1.4.6 3.4 1.4 4.5.7 1.1 1.7 3.1 2.1 4.5 1.1 3.6 15.2 32 24.1 48.5 8.6 16 11.6 22.3 14.5 30.3 1.2 3.1 2.7 7.3 3.5 9.2.7 1.9 1.3 4.5 1.4 5.6 0 2-9.9 16.2-16 22.9-1.5 1.6-3.6 4.5-4.6 6.2-2.2 3.9-2.5 4-6 1-2.5-2.1-3-2.3-5.3-1.1-2.2 1.2-2.7 1.1-4.3-.6-1.3-1.4-2.6-1.7-5.1-1.3l-3.3.5-2.2-7.4c-1.3-4-3-8.6-3.7-10.1-.8-1.6-1.5-3.4-1.5-4 0-1.5-8.4-27.2-10.9-33.2-1.2-3.1-4.1-11.7-5.1-15-3.2-11.5-5.4-18.4-6.6-21-2.5-5.5-11.5-34-11.2-35.7.3-1.8 10.5-14.9 19.8-25.3 3-3.4 6.8-7.8 8.3-9.8 1.5-2.1 3.2-3.7 3.7-3.7.6 0 1 2.4 1 5.3zm397.8 11.9c.9.9 1.9.9 4.5 0 1.9-.7 4.9-.9 6.8-.6 1.9.3 9 1 15.9 1.4 6.9.5 13.9 1.4 15.5 2 5.3 1.7 18.7 5 20.7 5 1 0 1.8.4 1.8 1 0 .5 1.2 1.2 2.8 1.6 4.7 1 11.6 3.7 13.3 5.1.8.7 2.2 1.3 3 1.4.8 0 3.2 1.1 5.4 2.4 2.2 1.3 5 2.8 6.2 3.4 1.1.5 2.4 1.5 2.8 2 .3.6 1.4 1.1 2.4 1.1s2.6 1.1 3.5 2.5c1.5 2.2 1.5 2.9.2 6-.8 1.9-1.9 3.5-2.5 3.5-.5 0-1.3 1-1.7 2.2-.4 1.3-1.8 3.7-3.3 5.4-1.4 1.7-3.5 4.6-4.6 6.4-4.7 7.8-7.5 12.6-8.5 14.7-.5 1.3-1.4 2.3-1.9 2.3s-1.5 1.5-2.1 3.2c-.6 1.8-2.1 4.7-3.3 6.4-4.6 6.5-11.4 17-12 18.6-.3 1-1 1.8-1.5 1.8s-2.8 2.7-5.3 6.1c-2.4 3.3-4.8 6.4-5.4 6.7-.9.6-5.8 6-16.6 18.2-14.5 16.3-13.5 15.5-17.6 14.4l-3.7-.9-1.2-7.5c-.7-4.1-1.3-13.4-1.3-20.5-.1-7.2-.8-17.3-1.5-22.6-1-6.7-1.1-11.7-.5-16.5.5-3.8 1.3-12.1 1.9-18.4.5-6.3 1.4-14.4 1.9-18 .6-3.6 1.3-10.8 1.6-16 .3-5.2 1-11 1.6-12.7.6-1.8.8-4.2.4-5.3-.5-1.6-1-1.8-2.6-1-1.7.9-1.9 2.2-1.9 10.3 0 5.1-.7 11.9-1.5 15.2-.8 3.3-1.4 7.4-1.5 9.1 0 3.1-2.4 6.3-3.7 5-.5-.5-1.4-24-1.3-34.7 0-2.7-2.6-4.7-4-3.2-.4.4-.4 3.9.1 7.8 1.9 15.3 2.8 27.4 2.9 35.5 0 4.7.7 12.9 1.7 18.3 1.4 8.4 1.5 10.7.4 15.5-.6 3.2-1.5 11-1.8 17.5-.7 14.6-2.2 15.3-6.9 3.2-1.8-4.4-3.6-9.1-4.1-10.5-2.9-7.2-8.3-22.8-8.3-23.7 0-.6-.7-1.6-1.5-2.3-.8-.7-1.5-2.1-1.5-3.2 0-2-1.7-6.6-4.6-12.1-.8-1.6-1.4-3.4-1.4-4 0-.7-.7-2.5-1.5-4s-1.9-4.2-2.4-6c-1.6-5.3-6-17-7.4-19.7-2.2-4.1-4-10.7-3.4-12.4.4-1 1.8-1.6 3.7-1.6 1.7 0 4.6-.6 6.4-1.4 1.8-.7 7-1.7 11.5-2.1 4.6-.4 9.5-1.1 10.9-1.5 3.9-1.2 4.7-1.1 6 .2zm-678.5.9c7.4-1.1 35.8.5 41.7 2.3 2.5.8 6.8 2.1 9.6 3 2.9.9 6 1.6 7.1 1.6 1 0 3.6.9 5.8 2 2.2 1.1 4.7 2 5.7 2 .9 0 2 .4 2.3 1 .3.5 1.3 1 2.1 1 .7 0 4.3 1.3 7.7 3 3.5 1.6 6.8 3 7.3 3 .5.1 2.5 1.4 4.4 3 1.9 1.7 3.9 3 4.5 3 .5.1 2.3 1.1 3.8 2.4 2.5 2 2.7 2.4 1.5 4.8-.8 1.3-3.2 4.8-5.6 7.5-2.3 2.8-4.2 6-4.2 7.1 0 1.2-.5 2.4-1 2.7-.6.4-1.6 2-2.3 3.6-1.7 4.1-11.6 16.6-21.8 27.3-4.7 5-10.1 10.8-12 12.8-5.4 5.9-17.9 19.3-30.8 32.8-10.3 10.8-12.1 12.3-13.5 11.1-.9-.7-1.5-2.8-1.5-4.9 0-2.1-.5-13.2-1.2-24.7-1.6-30.5-1.4-38.1 2.1-66.5.6-5.2 1.8-15.5 2.7-22.8 1.2-9.8 1.3-13.6.5-14.4-2.5-2.5-3.9 1-4.6 11.9-.3 5.9-1.1 13.4-1.7 16.8-.6 3.3-1.3 7-1.5 8.2-.3 1.3-.8 2.3-1.3 2.3-1.4 0-2-7.2-2.2-23.2-.2-14.9-1-18.1-4-16.2-1.3.8-1 7.7 1.7 41.9 1 12.1 1.8 27.4 1.8 34 0 13.3-1.8 35.3-3.5 43-.6 2.7-1 8.2-1 12.2l.1 7.2-4.2 2.1c-5.3 2.6-6.5 2.5-7.2-.3-.3-1.3-1.9-3.6-3.6-5.3-1.7-1.6-4.2-4.5-5.5-6.4-1.3-1.9-5.5-7.1-9.5-11.5-3.9-4.4-9.2-10.9-11.8-14.5-2.6-3.6-5.1-7-5.7-7.5-2.2-2-6.5-8.4-6.5-9.6 0-.7-2-4.2-4.4-7.8-2.5-3.6-5.2-8.6-6.2-11.1s-2.6-5.1-3.6-5.8c-1-.7-1.8-1.8-1.8-2.4 0-1.4-11.1-20.7-15.3-26.6-1.7-2.3-3.9-4.2-4.9-4.2-3.8 0-2.2-1.5 9.2-8.6 7.6-4.7 17.2-9.2 23.5-10.9 3.3-.9 6.5-2.3 7-3 .6-.7 2.8-1.5 5-1.8 5-.7 12-2.5 16.3-4.3 1.8-.8 6.1-1.4 9.5-1.5 3.4 0 8.2-.4 10.7-.8 2.5-.5 5.4-.6 6.5-.3 1.1.3 2.8.5 3.8.3zM940 795.9c0 1.4.6 3.7 1.3 5.1.7 1.4 2.2 5 3.2 8 1.9 5.7 4.9 13.2 6.6 16.2.5 1 .9 2.5.9 3.3 0 .9 1.3 4.4 2.9 7.8 1.6 3.4 3.9 9.3 5.1 13 1.3 3.7 2.7 7 3.1 7.3.5.3.9 1.5.9 2.7 0 1.2.8 3.8 1.8 5.7 1 1.9 2.7 6.2 3.7 9.5 1.1 3.3 2.5 6.7 3.2 7.6 1.5 1.9 1.7 5.5.3 6.4-.6.3-1.8-.8-2.8-2.5-.9-1.8-3.7-5.6-6.2-8.6-4.2-5.1-14.3-21.3-17.4-27.9-.8-1.7-3.5-6.6-6-10.8-2.5-4.3-4.6-8-4.6-8.3 0-.3-2.2-4-5-8.2-2.7-4.2-5-8.2-5-8.9 0-.8-1.1-1.8-2.5-2.3-1.8-.7-2.5-1.7-2.5-3.5 0-1.4-.4-2.5-1-2.5-1.1 0-.1 6.3 1.2 6.8.4.2.8 1.1.8 2 0 1 3 6.2 6.6 11.7 8 12.2 8.9 14.1 6.6 15-1 .3-2.1 0-2.8-.9-3.9-5.4-22-25.8-23.5-26.7-1.1-.5-1.9-1.4-1.9-2 0-1.2 5.1-5.8 6.5-5.9.6 0 2.6-1.3 4.5-2.8 1.9-1.6 5.5-3.9 8-5.1 2.5-1.3 6-3.2 7.9-4.2 4.1-2.1 6.1-1.2 6.1 3zm-705.3 29.2c4.5 5.5 9.8 11.6 11.7 13.7 8.1 8.6 14.4 15.9 16.6 19.2 1.3 1.9 4.4 5.7 6.8 8.5 2.5 2.7 6.1 7.5 8 10.5 4.5 7.1 9.3 14.7 13.7 21.3 1.9 3 3.5 6.2 3.5 7.3 0 1.2 1.1 3.1 2.5 4.4 1.4 1.3 2.5 2.8 2.5 3.4 0 1.5 4.1 9.6 4.8 9.6.4 0 1.3 1.3 2 3 1.2 2.7 1.1 3.2-1.4 6.5-2.9 3.9-3.2 3.9-11.3.4-2.4-1-5.8-1.9-7.6-1.9-1.8 0-4.9-.7-6.8-1.5-2-.8-5.2-1.5-7.1-1.5-1.9 0-4.7-.6-6.3-1.4-2.9-1.4-9.8-3.3-16.8-4.6-2.2-.4-6.6-1.9-9.9-3.3-3.2-1.5-6.2-2.7-6.7-2.7-.9 0-12.9-5.3-16.9-7.5-6.8-3.7-14.9-7.5-16-7.5-.7 0-3.1-.8-5.4-1.9-2.3-1-6.7-3-9.8-4.5-3.1-1.4-6-2.6-6.3-2.6-.4 0-2.2-.7-4.1-1.6-3.7-1.8-4.8-1.6-3.9.7.6 1.5 10.8 6.7 18.5 9.4 2.5.9 5.7 2.3 7.2 3.1 1.4.8 3.2 1.4 4 1.4.8 0 2.3.7 3.4 1.5 1.6 1.3 1.7 1.6.4 2.5-2.1 1.4-6 1.2-9.1-.4-2.2-1.1-11-3.4-18.9-5-1.4-.2-3.5-.8-4.7-1.1-1.4-.5-2.3-.3-2.3.3 0 2.2 3.2 4.1 8.8 5.2 3.1.6 7.2 1.7 9 2.5 1.8.8 4.4 1.5 5.7 1.5 1.4 0 8.5 1.4 15.7 3.1 23.8 5.5 38 10 52.5 16.5 1.7.8 3.6 1.4 4.1 1.4.6 0 4.8 1.9 9.4 4.3 4.6 2.4 11.4 5.5 15.3 6.9 8.5 3.1 11 5.9 9.8 10.8-.8 2.8-1.6 3.5-6.3 5-5.3 1.7-10.9 4-19.5 8-7.9 3.6-28.1 11.3-33.5 12.8-5.9 1.5-15 3.5-25.8 5.6-3.7.7-7.6 1.7-8.7 2.3-1.1.6-2.5.8-3.2.6-.7-.2-4.5.5-8.6 1.6-4 1.2-9.2 2.1-11.4 2.1-2.3 0-5.4.6-7 1.4-1.5.8-4.1 2-5.8 2.6-1.6.7-3.8 1.7-4.8 2.2-1.1.5-2 .8-2.1.6-.6-.7-2.9-10.7-4.4-19.3-2.1-11.4-2.3-46.1-.4-55 .7-3.3 2-9.4 2.8-13.5.9-4.1 1.9-8.4 2.4-9.5.5-1.1 1.2-3.6 1.6-5.5.3-1.9 1.3-4.4 2-5.5.8-1.1 1.4-3 1.4-4.3 0-1.3.8-3.4 1.8-4.7 1-1.2 2.4-4.2 3.2-6.6.8-2.4 1.7-4.6 2.1-4.9.3-.3 1.8-2.8 3.2-5.5 5-9.8 18.9-29 25-34.4.9-.8 1.7-2 1.8-2.6 0-.5 2.7-3.3 6-6 3.2-2.8 6.6-5.7 7.6-6.6 3.6-3.3 5.7-4 6.8-2.3.6.9 4.7 6.1 9.2 11.5zm672.7-9.7c.8 1.4 5.7 7.3 10.8 13.3 5.1 5.9 10.5 12.4 12 14.3 1.4 1.9 5.6 6.6 9.2 10.4 3.6 3.7 6.6 7.2 6.6 7.7 0 .7 3.2 4.7 8.2 10 1 1 2.9 4 4.3 6.6 1.4 2.6 3.9 6.8 5.5 9.3 1.6 2.5 3.4 5.5 3.9 6.7.5 1.1 2.4 3.5 4 5.2 1.7 1.8 3.1 3.9 3.1 4.8 0 .9 1.1 3.1 2.5 4.9 1.4 1.8 2.8 4.6 3.1 6.3.4 1.6 1.2 3.2 2 3.5.8.3 1.4 1.4 1.4 2.4s1.1 2.8 2.5 4c3.1 2.7 3.1 2.9-.5 7.1l-2.9 3.4-5.2-1.6c-2.8-1-7.7-2-10.7-2.4-3.1-.3-6.7-1.2-8.1-2-1.5-.7-4.2-1.3-6.1-1.3-1.9-.1-4.6-.7-6-1.5-1.4-.8-3.6-1.4-4.8-1.5-3.2 0-34.8-11.2-43.1-15.2-6.5-3.1-11.4-5.4-26.4-12.2-4.3-2-8.3-3.6-9-3.6-.7 0-2.1-.7-3.1-1.5-1.1-.8-2.7-1.5-3.6-1.5-2.3 0-6.9-2.3-7.5-3.8-.2-.7.3-2.9 1.2-5 4.9-11.2 8.5-18.2 9.4-18.2.5 0 .9-.5.9-1.1 0-3.2 19.2-29 27.6-37.1 14.5-13.8 16-14.6 18.8-10.4zM1134 817c4.1 2.9 17.3 17.2 21 22.5 1.8 2.8 5.2 7.5 7.5 10.5 5.5 7.2 8.4 12.1 15.1 25.8 3 6.3 5.4 12.3 5.2 13.5-.2 1.7-1.3 2.3-4.7 2.9-2.4.4-6.2 1.7-8.5 2.8-2.3 1.1-4.9 2-5.7 2-.8 0-2.3.6-3.4 1.4-1.1.7-3.6 1.7-5.5 2.1-1.9.4-4.6 1.5-6 2.5-1.4 1-5.4 3-9 4.4-3.6 1.5-7.8 3.3-9.5 4-1.6.8-4.8 1.9-7 2.6-2.2.7-5.8 2.1-8 3.1s-6.5 2.4-9.5 3.2c-22.2 5.7-35.7 8.7-39 8.7-1.6 0-3.1.4-3.4.9-.6.8-2.9 1.3-13.2 2.7-3.8.5-4.2.3-6.9-3.2l-2.9-3.7 2.2-1.5c1.2-.8 2.2-1.9 2.2-2.4s1.9-3.5 4.3-6.6c2.4-3.1 5.3-7.7 6.6-10.2 1.2-2.5 2.7-5.4 3.4-6.5 2.8-4.6 8.1-13.2 9.4-15 .7-1.1 2.8-4.3 4.7-7 4.3-6.3 16.5-20.6 26.6-31 4.3-4.4 10.4-11 13.5-14.8 3.2-3.7 6-6.7 6.4-6.7.4 0 1.5-1.5 2.5-3.3 4.2-7.2 5.9-7.7 11.6-3.7zm-580.1 12.2c.5 1.3 1.6 5 2.6 8.3 3.4 11.6 7.8 25 9.1 28.3.8 1.8 1.4 4 1.4 4.8 0 .9.6 2.8 1.4 4.2 1.5 2.8 14.9 42.7 16.6 49.5.9 3.2.7 4.2-1.5 7.6-1.4 2.4-3.4 4.1-4.7 4.3-1.6.2-2.4 1.1-2.6 2.9-.2 2-1 2.8-3.2 3.2-2.1.5-3 1.3-3.5 3.7-.4 1.7-1.8 3.8-3.1 4.6-1.3.9-2.4 2.5-2.4 3.6 0 1.7-.4 1.9-3.2 1.3-5.5-1.2-7.6-2.3-8.1-4.2-.3-1-1.1-7.9-1.7-15.3-.6-7.4-1.6-15.5-2.2-18-.5-2.5-1.3-7.2-1.7-10.5-1-7.5-2.9-15.1-4.7-18.8-.8-1.6-1.4-3.7-1.4-4.8 0-1-.9-3.8-1.9-6.1-4-8.9-5.9-13.5-7.6-18.4l-1.8-5 3.4-4.8c1.9-2.7 5.5-7.1 8-10 2.5-2.8 5.6-6.8 6.8-8.9 2.6-4.2 4.7-4.7 6-1.5zm-80.1 9.3c4.5 5.7 5.5 10.2 2.7 12.5-.8.7-1.5 2.3-1.5 3.5 0 1.2-1.3 4.9-3 8.1-1.6 3.2-3 6.4-3 7 0 .6-.9 3.3-2.1 6-1.1 2.7-2.4 5.8-2.9 6.9-.4 1.1-2.4 5.5-4.4 9.7-2 4.2-3.6 8.1-3.6 8.7 0 1.4-6 11.4-7.3 12.3-.7.4-3 1-5.2 1.3-2.2.4-7.8 2.3-12.5 4.3s-10.5 3.9-13 4.3c-2.5.4-9.9 1.9-16.5 3.4s-13.4 2.9-15.1 3c-1.6.1-3.6.5-4.2.9-.7.4-1.7.4-2.2.1-1.3-.8 3.7-7.2 12.5-16.1 6.7-6.9 19.1-20.3 25.7-27.8 2.4-2.8 8-8.8 12.5-13.5 4.5-4.7 9.4-10 11-11.8 1.5-1.8 6-6.7 9.8-10.9 3.9-4.2 9-9.8 11.4-12.5 2.4-2.7 4.9-4.9 5.5-4.8.6 0 3 2.4 5.4 5.4zm712.5 57.6c.5 1.9 1.2 5.4 1.6 7.9.4 2.5 1.5 5.9 2.4 7.7.9 1.8 1.7 5.1 1.7 7.5 0 2.4.5 5.9 1 7.8 1.4 4.7 1.5 46.7.1 50.3-.6 1.6-1.1 4.9-1.1 7.5 0 2.7-1 6.9-2.2 9.9-2.2 4.9-2.5 5.2-5.8 5.1-1.9 0-4.1-.5-4.8-1.1-1.1-.9-4.5-1.8-20.2-5.3-3.6-.8-8.4-2.2-10.7-3.1-2.3-.8-5.1-1.3-6.2-1-1.1.3-2.8-.1-3.8-.9-1-.7-2.8-1.4-4.1-1.4-2.5 0-16.8-3.8-19.4-5.1-1-.5-2.3-.9-3-.9-1.5 0-19.1-7-26.3-10.4-2.7-1.3-6.1-2.9-7.5-3.4-1.4-.6-6.9-3.1-12.3-5.7-5.3-2.5-10.5-4.4-11.5-4.3-1.4.3-1.7-.6-2-5.5-.3-5.3-.1-5.7 1.8-5.7 1.2 0 3.4-.7 4.8-1.5 4.2-2.2 19.2-8.5 20.4-8.5.6 0 1.9-.7 2.8-1.5 1.5-1.4 14.9-6.5 29-11.2 4.6-1.5 14.1-3.8 22-5.2 10.1-1.9 16.7-3.3 21-4.3 2.5-.6 6.8-1.4 9.5-1.9 6.5-1 13.1-2.7 17.5-4.7l3.5-1.5-2.7-.7c-2.6-.8-6-.2-17.8 3.1-7.4 2-17 3.4-17 2.4 0-2.1 7.4-6 18-9.5 8-2.6 13.1-5 15.9-7.1 3.2-2.5 4.4-2 5.4 2.2zm-680.7 1.7c1.3 1.1 2.4 3.5 2.7 5.8.3 2.1 1 5.7 1.6 7.9 2.2 8.9 3.3 15.4 3.8 22.7.6 10.9-1.5 10.5-9.6-1.4-2.4-3.6-4.1-5-7.2-5.9-4-1.2-4-1.3-3.4-4.8.4-2 1-4.1 1.5-4.6.4-.6 1-2.7 1.4-4.8.5-2.8 1.4-4 3.2-4.7 2.7-1.1 2.9-1.8 1.3-5.3-.8-1.8-.8-3 0-4.6 1.4-2.5 2-2.6 4.7-.3zm345.9 8.1c2.2.6 7.2 1.9 11 3.1 3.9 1.1 8.6 2.3 10.5 2.6 1.9.3 5.2 1.2 7.3 2 2 .8 4.9 1.4 6.4 1.4s4 .4 5.7.9c1.7.5 6.9 1.9 11.6 3.1 15.3 3.8 26.2 7.5 34 11.5 2.7 1.4 5.8 2.5 6.9 2.5 1.1 0 2.6.7 3.5 1.5.8.8 1.8 1.5 2.2 1.5.4 0 3.7 1.4 7.3 3.2 3.6 1.7 9.5 4.1 13.1 5.3 7.1 2.4 9 4.6 9 10.3 0 2.2-.5 3.4-1.7 3.8-1 .3-5.4 1.9-9.8 3.5-4.4 1.7-9.8 3.7-12 4.5-2.2.9-5.7 2.4-7.7 3.5-2 1-4.4 1.9-5.3 1.9-1 0-2.9.7-4.3 1.5-3.3 1.8-15.4 6.3-20.2 7.5-1.9.5-5.5 1.3-8 1.9-2.5.5-5.6 1.4-7 1.9-1.4.5-5.4 1.3-9 1.7-3.6.4-11.6 2-17.9 3.6-6.3 1.6-13.1 2.9-15.2 2.9-2 0-4.2.7-4.9 1.5-.8.9-3 1.5-5.8 1.5-3 0-4.9.5-5.7 1.6-1 1.4-1.4 1.2-3.3-2-1.2-2.1-2.2-5.1-2.2-6.7 0-1.7-.7-6.1-1.6-9.9-2-8.7-1.4-47.1.9-59.5 1.9-10.5 4.2-15.8 6.5-15.1.9.3 3.5 1 5.7 1.5zM441 920.2c1.7 1.1 2.2 1 2.9-.1.5-.7 1.4-1 2-.7 3 1.9-.9 8.9-4.7 8.4-3.1-.4-6.2 3.9-7.6 10.4-.3 1.5-1.6 3.9-2.9 5.4-2.1 2.5-2.5 2.5-6.2 1.4-2.2-.6-10-1.5-17.3-2-11.8-.7-13.6-1-15.7-3-2.1-2-3-2.2-6.7-1.5-6.4 1.1-10.7 1-12.1-.4-1.9-1.9 2.4-4.8 8-5.5 2.7-.3 7.5-.8 10.8-1.2l6-.6-1.9 2.1c-1.5 1.6-1.7 2.4-.8 3.3.8.8 2.1.5 4.9-1.4 2.1-1.4 5.6-3.1 7.8-3.8 2.2-.6 5.4-1.8 7.2-2.6 1.7-.8 4-1.4 5-1.4 1.1 0 2.8-.7 3.9-1.5 1-.8 2.7-1.5 3.7-1.5 1.8 0 3-.5 8.2-3.3 3.6-2 3.1-2 5.5-.5zm618.5 51.8c3 .5 7.1 1.7 9.1 2.6 2.1 1 5.3 1.7 7.3 1.7 2-.1 4.9.6 6.5 1.4 1.6.8 4.7 1.6 7 1.8 2.3.1 5.5.8 7.1 1.4 1.7.6 6.8 2.4 11.5 4 11.3 3.9 28.3 11 35.2 14.7 1.5.8 5.8 2.6 9.5 4s7.7 3.1 8.8 3.9c3.2 2 16.9 7.3 17.8 6.8 2-1.2.2-3.3-4.5-5.3-2.9-1.2-7.5-3.2-10.3-4.5-2.7-1.2-7-3.1-9.5-4.1-5.2-2-7-3.3-7-4.6 0-1.6 12.1.6 19 3.5 1.4.6 6.3 1.6 11 2.2l8.5 1.1-.3 4.4c-.2 3-1 4.9-2.3 5.9-1 .7-1.9 2.5-1.9 3.8 0 2.3-1 4.8-7.8 19.3-1.2 2.5-5.2 8.8-8.9 14.1-3.7 5.3-8.1 11.6-9.8 14-4.6 6.5-20.2 22.4-24.1 24.5-1.9 1-3.4 2.2-3.4 2.6 0 .5-.7.8-1.5.8s-1.5-.6-1.5-1.3c0-.8-1.2-2.4-2.6-3.8-1.4-1.3-4-4.4-5.7-6.9-3.4-5-11-14.1-20.1-24.1-3.4-3.7-7.8-8.8-9.8-11.5-2.1-2.7-5.6-6.9-7.8-9.3-2.2-2.3-4-4.7-4-5.2 0-1.1-4.6-8.5-7.1-11.4-1-1.1-4.2-6.9-7.3-12.9-3-6-6.3-11.7-7.2-12.7-1.9-2.1-3.7-5.1-5.3-8.7-.6-1.2-1.5-2.2-2-2.2s-1.4-1.3-2.1-2.9c-1-2.5-.9-3.4.6-5.8 3-4.8 4.4-5.5 7.1-3.7 1.4.8 4.9 1.9 7.8 2.4zm-754.9-.2c1.2 1 2.7 2.9 3.4 4.2 1.1 2.1 1 2.6-.9 3.8-1.1.8-2.1 2.4-2.1 3.7 0 1.2-.9 3-2 4s-2.9 3.8-4.1 6.2c-1.2 2.4-4.1 7.3-6.5 10.8-2.4 3.5-4.4 6.7-4.4 7.2 0 2.3-17.9 26.1-20.2 26.9-1 .3-1.8 1.1-1.8 1.7 0 .7-2.3 3.6-5 6.6-5.5 6.1-20 22-23.9 26.5-1.5 1.5-3.5 3.8-4.6 5-1.1 1.1-3.3 4-4.8 6.4-1.5 2.4-3.4 4.5-4.2 4.8-1.8.7-8.1-3.4-13-8.6-2.2-2.3-4.9-5.2-6.1-6.3-1.1-1.2-3.6-4.2-5.5-6.7s-4.4-5.6-5.6-7c-4.3-5-11.4-15.6-14.4-21.5-1.6-3.3-3.4-6.7-3.9-7.5-1.2-2.2-4-8.7-4-9.5 0-.3-.7-1.3-1.5-2.1-.8-.9-1.5-2.9-1.5-4.5 0-2.4.4-2.9 2.5-2.9 1.4 0 3.3-.4 4.3-.9 3.6-1.9 20.2-8.1 21.5-8.1.8 0 2.5-.8 3.8-1.8 2.5-1.9 9.6-5 26.4-11.7 9.1-3.6 20.9-7.4 27.5-8.9 4.1-.9 10.7-2.4 14.5-3.2 3.9-.9 9.3-2.2 12.1-3 2.8-.8 6.4-1.4 8.1-1.4 1.7 0 5-.9 7.4-2 5.3-2.4 5.8-2.4 8.5-.2zm682.8 2.4 3.6 4.2-2 2c-4.8 5-7 8-7 9.6 0 .9-.9 2.5-2 3.5s-2 2.2-2 2.6c0 .4-2.2 4-4.8 8.1-4.7 7-10.1 15.4-13.5 20.9-1.7 2.8-11 13.9-18.7 22.4-2.5 2.8-7.6 8.6-11.5 12.9-3.8 4.3-9 9.9-11.4 12.5-2.4 2.5-6.3 7.6-8.8 11.3-2.4 3.8-4.8 6.8-5.2 6.8-2.8 0-18.5-14.1-22.6-20.2-1.6-2.4-4.6-6.1-6.7-8.3-2.1-2.2-4.6-5.4-5.6-7-6.5-11.4-8.7-14.7-9.8-15.2-.8-.3-1.4-1.1-1.4-1.9 0-.7-1.3-3.6-3-6.4-1.6-2.8-3-5.9-3-6.8-.1-.9-.7-2.8-1.5-4.2-2.1-3.6-1.9-7 .3-7 1.1 0 2.9-.9 4.2-2 1.3-1.1 3.3-2 4.6-2 1.3 0 2.5-.4 2.9-.9.3-.5 2-1.3 3.8-1.6 1.7-.4 8.6-3.1 15.2-6s14.7-6.3 18-7.5c5.9-2.2 9.3-3.6 15.8-6.4 8.5-3.7 15.4-5.7 29.3-8.5 8.2-1.7 16.2-3.1 17.6-3.1 1.4 0 3.9-.7 5.4-1.5 1.6-.8 5-1.5 7.5-1.5 3.2 0 4.9-.5 5.3-1.5.9-2.6 3.3-1.7 7 2.7zm-602.2-.2c13.1 2.2 20.5 4 28 7.1 2.6 1 6 1.9 7.7 1.9 1.7 0 4.7.7 6.8 1.6 2.1.9 5.6 2.4 7.8 3.4 2.2.9 5.6 2.3 7.5 3 1.9.8 4.4 2 5.5 2.7 1.1.7 2.5 1.3 3.2 1.3.6 0 5.4 2 10.6 4.5 5.2 2.5 9.8 4.5 10.2 4.5.3 0 3.2 1.2 6.3 2.6 16.4 7.4 21.8 10 22.4 10.9.4.5-.2 2.5-1.2 4.3-1.1 1.8-2 4-2 4.8 0 1.6-1.5 4.6-4.2 8.3-1 1.3-1.8 3.2-1.8 4.1 0 1-.6 2-1.3 2.3-.7.2-2.3 2.4-3.5 4.8-2.5 4.7-6.3 10.5-8.5 12.9-.8.8-3.6 4.4-6.3 8-6 7.9-16.6 18.5-20.3 20.5-1.5.7-3.3 2.1-4 2.9-2.2 2.6-4.5 1.8-6.4-2.2-2-4.4-11-15.6-20.9-26.4-3.9-4.2-7.6-8.5-8.2-9.5-1.1-2-7.4-10-14.6-18.3-2.6-3-5.5-7.1-6.5-9-.9-1.9-2.5-4.4-3.5-5.5-1-1.1-3-4.3-4.5-7.2-1.4-2.9-2.9-5.5-3.4-5.7-.5-.3-2.8-4.5-5.2-9.3-4.4-8.9-6.5-12.4-10.8-17.8l-2.3-2.9 2.6-2.3c3.3-2.8 5.2-2.8 20.8-.3zm72.3 3c9.9.5 20.3 1.2 23 1.5 2.8.3 6.3.7 7.9.9 1.8.2 3.2 1 3.7 2.2 1.5 4.2 4.8 5.9 11.6 6.1 3.6.1 6.8.4 7 .7.3.3-.2 2.8-1.1 5.5-.9 2.7-1.6 5.9-1.6 7 0 2.7-1.7 3.6-2.4 1.3-.9-2.8-9.6-6.2-16.2-6.2-1.6-.1-4-.7-5.4-1.5-1.4-.8-4-1.4-5.8-1.5-1.8 0-4.5-.6-6-1.4-2.6-1.3-15.5-3.9-25.4-5.1-2.5-.3-5.2-1.3-5.8-2-.7-.8-2.4-1.5-3.9-1.5-2.7 0-10.9-2.6-12.6-4-.5-.4-2.5-1.1-4.2-1.5-1.8-.3-3.3-1-3.3-1.5 0-1.3 7.4-1.6 15.5-.8 3.9.4 15.1 1.2 25 1.8zm539.9 5.9c.9 1 3.8 2.4 6.4 3.1 2.6.7 5.5 1.4 6.4 1.7 1.5.4 1.6.8.7 2.5-.7 1.2-.8 4.1-.5 7.2 1 7.7 2.9 43 2.8 52.1-.1 11.6-2 34.4-3.2 38.5-.6 1.9-1.5 9.8-2 17.5-.5 7.7-1.4 15.5-1.9 17.4-.6 1.9-.8 3.8-.4 4.4.3.5-.1 1.5-1 2.2-1.2.8-4 .8-11.9-.2-5.7-.7-12.5-1.6-15.3-1.9-2.7-.4-5.6-1.1-6.3-1.7-1.3-1.1-10.6-3.6-16.2-4.4-1.9-.3-4.2-1.1-5-1.7-.8-.7-8.1-4.5-16.1-8.4-8.1-4-15.4-8.1-16.3-9.1-1.5-1.7-1.5-1.9 0-3.2 1.8-1.5 8-10.6 10-14.9.4-.8 3.1-5 5.8-9.2 7.5-11.4 9.6-14.8 12.3-19.7 1.4-2.4 4.6-7.5 7.2-11.3 2.5-3.8 5.5-8.4 6.6-10.2 2.5-4.1 11.5-14.6 17.9-21 2.7-2.7 6.8-7.2 9.1-10s6.1-7 8.4-9.4c2.2-2.4 4.1-4.7 4.1-5.2 0-1.7-4.6-1.1-6.4.7-3.2 3.4-5.5 6.5-6.1 8.4-.4 1.1-1.3 1.9-2.1 1.9-1.9 0-1.9-5.6 0-6.3.8-.3 2.2-2.3 3.2-4.4 3.4-7.4 6.5-9.1 9.8-5.4zm-670.8 4.2c2.4.6 5.4.9 6.5.6 1.2-.3 3.4-.3 4.9 0 2.4.4 2.7.8 1.9 3.2-1.1 3.6-2.7 11.7-3.5 17.3-1.3 9.4-3.4 3.5-3.4-9.7 0-7.3-1.2-10.8-2.9-9-1 1.1 0 25 1.9 42.5.7 5.8 1 14.1.8 18.5-.7 13.1-2.9 34.7-3.9 38.5-.7 2.9-2.3 20.7-3.2 35.5-.1 1.6-.6 3.6-1 4.2-1.1 1.8-10.5 1.6-19.2-.2-3.8-.8-8.4-1.5-10-1.5-1.7 0-4.7-.9-6.8-2-2-1.1-5-2-6.6-2-1.7 0-3.3-.5-3.6-1-.3-.6-1.9-1-3.4-1-1.6 0-3.4-.6-4-1.4-.7-.8-2.7-1.8-4.4-2.2-4.4-.9-25.6-12.1-30.7-16.2-.3-.2.5-1.1 1.8-1.9 1.2-.9 2.2-2.2 2.2-2.9 0-.7 2.3-4.6 5-8.6 2.8-4 5-7.8 5-8.4 0-.6.7-1.7 1.5-2.4s3.3-4.5 5.5-8.5 4.7-7.8 5.5-8.5c.8-.7 1.5-1.7 1.5-2.3 0-.5 1.5-3.3 3.4-6.1 1.8-2.8 4.2-6.7 5.2-8.6 3.3-6 13.1-18.5 21.4-27 4.4-4.5 8-8.5 8-8.9 0-.6 8.4-10 13.5-15.1 1.4-1.4 2.5-3.2 2.5-4.1 0-2.1 1.1-3.1 2.8-2.4.8.3 3.4 1 5.8 1.6zm26.4-.8c0 .8 1.7 3.1 3.7 5.2 2.1 2.1 4.6 5.1 5.8 6.6 1.1 1.5 6.1 7.5 11 13.2 15.7 18.2 21 25.8 31.7 45.8 1.4 2.8 3.7 6.4 5 8.2 1.3 1.8 3.6 5.5 5 8.3 2.6 4.8 6.9 12.3 12 20.8 1.3 2.1 3.4 4.2 4.7 4.7 2.3.9 2.3 1 .5 3-1 1.1-3.2 2.7-4.9 3.5-1.6.8-7.7 3.9-13.5 6.9-5.8 3-11 5.5-11.6 5.5-.6 0-1.7.7-2.4 1.5s-2.7 1.5-4.6 1.5c-1.8 0-3.6.4-3.9 1-.3.5-1.9 1-3.6 1-1.6 0-4.6.9-6.6 2-2.1 1.1-5.2 2-7 2-1.7 0-5.8.7-9.2 1.5-3.7 1-9.1 1.5-14.3 1.3l-8.3-.3-.3-11c-.1-6.1-.9-15.1-1.7-20-1.1-7.3-2.6-32.1-2.8-48 0-6.3 2.3-36.2 3.2-41 .5-2.8 1-8.7 1-13.2l.1-8.3 3.3-1.4c4.2-1.9 7.7-2 7.7-.3zm682.4 1.1c.5 2.2 12.1 16.7 20.4 25.6 1.7 1.9 3.2 3.7 3.2 4 0 .4 2.1 2.9 4.6 5.6 2.5 2.7 6 7.1 7.8 9.9 5.1 7.7 10.9 17.3 12.9 21.1 1 1.9 3.1 5.4 4.7 7.6 1.7 2.3 3 4.7 3 5.4 0 .7 1.9 4.4 4.3 8.1 2.3 3.8 4.8 7.7 5.4 8.8.7 1.1 1.9 3.3 2.6 5 1.8 3.8 6.5 10.7 7.9 11.6 1.7 1.1.1 3.8-2.9 5-1.5.6-3 1.4-3.3 1.8-.6.9-21.5 11.1-22.8 11.1-.5 0-1.5.6-2.1 1.4-.6.8-2.6 1.6-4.4 1.9-9.5 1.7-12.7 2.5-14.1 3.6-1.6 1.3-4.9 1.9-25.5 4.6-8.6 1.1-11.8 1.2-12.8.3-.8-.6-1.2-1.6-1-2.2.3-.6-.2-7.7-.9-15.6-.8-8-1.8-21.9-2.4-31-.5-9.1-1.1-17.6-1.4-19-1.4-8.2-1.5-12-.1-22.2.8-6.2 1.5-14.3 1.5-18 0-3.7.4-7.8 1-9.2 1.5-4.1 2.4-20 1.2-22.2-1-1.7-1.2-1.6-2.6 1.8-.9 2.1-1.6 6.4-1.6 9.7 0 5.7-1.2 8.3-3 6.5-.4-.5-1-5.3-1.2-10.6-.4-11-.5-10.8 7-10.8 2.6 0 5.4-.5 6.2-1 .8-.5 2.9-1 4.6-1 2.5 0 3.3.5 3.8 2.4zM594.2 993c-.2.8-.8 1.7-1.3 1.9-.6.1-1.4.8-1.9 1.5-5.5 6.8-5.9 7.1-7.6 6.1-1.9-1.2-4.7-10.7-3.4-11.5.4-.3 3.9-.3 7.7 0 5.4.4 6.7.8 6.5 2zm64.1-.8c2.2 3.5-11 23.3-14.2 21.4-.6-.4-1.1-1.8-1.1-3 0-1.3-.9-3.5-2-4.9-1.1-1.4-2-3.4-2-4.6 0-1.1-.5-3.2-1.2-4.6-1.6-3.5-.5-4.3 7.7-5.4 8.8-1.1 11.6-.8 12.8 1.1zm-37.6 17.6c4.4 6.7 6.6 11.3 5.7 12.1-.3.3-4.7.6-9.7.5-7.2-.1-10.2-.6-13.9-2.3-2.7-1.2-4.8-2.5-4.8-2.9 0-.9 8.6-8.2 9.6-8.2.3 0 2.2-1.4 4.1-3 1.9-1.7 3.8-2.8 4.4-2.5.5.4 2.6 3.2 4.6 6.3z"/></svg>