<svg version="1.0" xmlns="http://www.w3.org/2000/svg" width="1706.667" height="1706.667" viewBox="0 0 1280 1280"><path d="m558.4 174.7-16.1 10.8-16.9 30.2-16.9 30.3H468c-37 0-41.2.2-48.8 2-34.4 8.2-64.5 38.5-90.6 91-17.9 36-34.1 82.9-45.1 130.2l-2.7 11.7-9.9-11.8-10-11.9-9.7-.6c-16.4-1-79.3-2.8-79.9-2.3-.2.3-2.6 6.3-5.3 13.4l-4.9 13 3.3 13.1 3.3 13.1 8.4 9 8.3 9.1h76.1l5.3 3.5c6.9 4.7 6.9 6.5-.2 6.5-2.9 0-9.3.7-14.2 1.5-48.7 8.5-86.8 46.2-95.9 94.9-1.4 7.2-1.5 17.6-1.3 72.7l.3 64.4 2.8 10c3.2 12 12.6 31.4 19.6 40.5 6.4 8.4 19.9 21.4 28 26.9 11.1 7.5 23.7 13.1 39.9 17.7.9.3 1.2 7.2 1.2 30.3 0 26.9.2 30.5 2 36.2 4.2 13.9 14.8 25 28.8 30.2 5.3 2 7.9 2.2 40.6 2.5 29.1.3 36.1.1 42-1.2 17.9-4.1 32.2-18.9 35.5-37 .6-3.3 1.1-17.7 1.1-32.3V866l262.8.2 262.7.3.5 30.5c.5 25.8.8 31.2 2.3 35 5.3 13.3 15.4 23.4 28.5 28.3 5.3 2 7.9 2.2 40.2 2.5 23.4.2 36.4 0 40.4-.8 16.8-3.3 29.8-14.4 35.8-30.8 2.1-5.4 2.2-7.9 2.6-43.7l.4-38 5.6-3.5c3.1-1.9 10.6-8.5 16.7-14.5 16.1-16.1 25.1-31.8 31.3-54.2l2.7-9.8v-134l-2.6-9.5c-6.1-21.7-16.2-39.4-31.4-54.5-18.6-18.7-41.3-30-67.1-33.6l-8.7-1.2 3.4-2.8 3.4-2.8 35.2-.1h35.3l7.7-8.9 7.8-9 3.1-13.3 3.1-13.3-4.5-13.4-4.5-13.4-17.1.6c-9.4.4-25.6.9-36.1 1.2-10.4.3-21.4.8-24.2 1.1l-5.3.5-10.2 13.4c-5.7 7.3-10.4 13.2-10.6 13.1-.1-.2-1.7-7.9-3.6-17.2-10.3-50.9-23.9-92.5-41.8-127.6-13-25.5-26-43.9-43-60.5-16.7-16.4-32-25.3-54.8-31.8-1.4-.4-19.8-1-40.9-1.4l-38.3-.6-18.5-34.1-18.5-34.2-16.2-6.8-16.1-6.7-33-.8c-18.1-.4-49.4-1-69.5-1.4l-36.5-.6-16.1 10.8zm91.6 41c5.7 15.3 10.6 28.4 11 29.2.5.9 3.2-2.4 8.4-10.4l7.7-11.8-9.4-14.1c-5.1-7.8-10.2-15.3-11.1-16.9l-1.8-2.7H672.1l6.7 10.5c3.7 5.7 6.9 10.5 7.2 10.4.3 0 3.4-4.7 6.9-10.4l6.4-10.5H727l-.2 34.7-.3 34.8-12.7.3-12.8.3-7.6-11.8-7.6-11.7-7.5 11.7-7.6 11.7h-19.5l-3-8.3c-1.6-4.5-3.3-9.2-3.6-10.5-.7-2.1-1.3-2.2-10.1-2.2h-9.3l-3.7 10.5-3.8 10.5h-7.4c-5.6 0-7.4-.3-7-1.3.2-.6 6.2-16.6 13.2-35.5l12.9-34.2h10.3l10.3 27.7zm-34-19.2v7.5h-21v55h-13v-55h-21v-15h55v7.5zM568.5 290c32.5.6 99.5 1.2 149 1.6 49.5.3 93.9 1 98.7 1.5 37.8 4.1 71.6 28.7 97.4 70.9 21.6 35.4 39.4 88.6 47.9 142.6 1.4 8.7 2.3 16 2 16.2-.2.2-87.6-.1-194.2-.8-106.6-.6-247.9-1.5-314-1.9-66.1-.3-120.4-.8-120.6-1.1-.3-.3.4-7.3 1.4-15.5 12.8-101.1 48.4-171.7 101.9-202.2 18.4-10.5 30-13.3 54-12.7 9.6.3 44.1.9 76.5 1.4zm431 300.5c20.5 4.3 39 19.7 45.7 38 2.6 7.3 3.5 21.7 1.8 29.8-4.3 20.8-23.7 39.1-46.6 44.2-11 2.5-27.4 1.7-37.2-1.8-24.2-8.5-39.7-27.8-40.9-51.2-.9-16.4 4.1-28.9 16.7-41.6 15.5-15.7 37.9-22.1 60.5-17.4zM314 602.6c13.3 3.1 26.5 11.4 34.8 21.9 24.8 31.3 9.7 74.9-30.4 88.1-7.9 2.6-10.2 2.9-20.9 2.8-13.9 0-19.8-1.5-31.9-7.7-19.4-10-31-28.9-30.9-50.2.1-14.1 4.5-25.1 14.6-36.1 15.8-17.3 40.4-24.5 64.7-18.8zm569 20.9v7.5H403v-15h480v7.5zm-3.7 30.7-.1 7.3-238.1.3-238.1.2v-15h476.5l-.2 7.2zm7.7 35.3V701l-243.7-.2-243.8-.3-.3-11.3-.3-11.2H887v11.5zm-95.3 69.4c17.3 2.5 30.2 14.9 33.3 31.8 2.9 16.6-6.2 33.8-21.8 41.1l-5.7 2.7h-278l-5.8-2.8c-7.4-3.7-14.7-11-18.4-18.4-2.5-5.3-2.8-6.8-2.8-16.3s.3-11 2.8-16.3c5.5-11.2 16.8-19.6 28.7-21.6 7.2-1.2 259.6-1.3 267.7-.2z"/><path d="M704 208.2c-4.7 7.2-8.6 13.6-8.8 14.3-.1.6 3.8 7.3 8.8 14.9l9 13.8v-28.1c0-15.4-.1-28.1-.2-28-.2 0-4.1 5.9-8.8 13.1zM632.7 216.6c-.9 2.6-1.5 4.9-1.3 5.1.2.3 1.7.3 3.3.1l3-.3-1.6-4.8-1.6-4.8-1.8 4.7z"/></svg>