<svg xmlns="http://www.w3.org/2000/svg" viewBox="0 0 259.3 435.88"><path style="fill:#000" d="M315.67 347.53c0 20.503-16.621 37.123-37.123 37.123-20.503 0-37.123-16.621-37.123-37.123 0-20.503 16.621-37.123 37.123-37.123 20.503 0 37.123 16.621 37.123 37.123z" transform="translate(-132.24 -310.409)"/><path d="M516.35 490.41s-30.339 157.53-36.871 168.19c-5.586 9.115-49.18 80.642-49.18 80.642-9.306 15.26-.487 26.17 9.372 31.862 8.394 4.846 26.437 3.646 32.403-6.53 0 0 48.366-75.267 53.643-91.5 3.654-11.238 12.143-57.857 12.143-57.857s46.996 48.47 52.143 57.143c6.488 10.933 18.571 87.143 18.571 87.143 2.89 13.56 15.822 17.982 29.286 15.714 10.633-1.79 21.753-8.985 19.286-22.143 0 0-10.746-88.36-19.286-102.86-10.19-17.302-65-76.43-65-76.43l15.714-70s10.086 20.447 17.143 29.287c8.026 10.053 58.571 39.286 58.571 39.286 4.637 3.11 15.133 1.396 19.286-6.429 3.334-6.28 3.177-16.454-4.285-21.429 0 0-41.655-26.15-51.43-34.286-10.87-9.03-32.86-69.27-32.86-69.27-6.82-9.386-16.15-19.742-32.142-20-16.12-.26-24.187 8.62-31.43 13.571 0 0-61.746 45.105-67.856 54.286-6.147 9.236-17.143 78.571-17.143 78.571-1.724 7.9 1.362 14.253 10.714 16.43 11.443 2.661 19.645-4.464 20.714-10 0 0 7.05-54.766 12.143-62.858 5.929-9.421 26.346-20.52 26.346-20.52z" style="fill:#000" transform="translate(-426.35 -339.904)"/></svg>