<svg version="1.0" xmlns="http://www.w3.org/2000/svg" width="1706.667" height="965.333" viewBox="0 0 1280 724"><path d="M120 1.1c-3 .4-7.4 1.5-9.7 2.3-3.9 1.4-36.4 25.1-36.2 26.5 0 .3 77.6 49.3 172.3 108.9l172.4 108.3 36.7 37.5c20.2 20.6 36.6 37.6 36.4 37.8-.2.2-23.6 4.7-51.9 10.1-28.3 5.3-63.1 11.9-77.3 14.6-14.3 2.7-26.4 4.9-27.1 4.9-.7 0-22.2-22.6-47.9-50.2-28.5-30.7-49.1-52-52.8-54.7-7.5-5.4-21.6-12.8-26.2-13.6-3.5-.7-33.6 4-34.8 5.3-.3.4 1.4 22.5 3.7 49.2 2.4 26.7 4.2 49.2 4.1 50.1-.2 1.8.3 2-83.2-37.6-26.4-12.5-50.7-23.6-54-24.7-13.5-4.4-33.2-1.4-40.7 6.2-2.1 2.1-3.8 4.6-3.8 5.7 0 1.2 22.3 22.8 64.1 61.9 35.2 32.9 65.5 61.1 67.2 62.6l3.2 2.7-3.9 3.2c-5 4.2-7.6 9.9-7.6 17.1 0 5.1.3 5.9 3 8.2 5.1 4.2 19.5 7.7 36.5 8.8l4 .3 31.2 41.5c17.1 22.8 32.2 42.3 33.4 43.2 3.2 2.7 16.1 2.5 23.5-.3 10.8-4 10.5-3.4 18.5-37.9 3.9-16.8 7.2-30.6 7.3-30.8.2-.1 9.9.5 21.7 1.3 35.3 2.4 76.5 3.5 131.9 3.5 68.7 0 98-1.2 150.3-6.1 12-1.1 22.9-1.9 24.3-1.7 1.8.2 15.5 11.7 41.5 34.8l38.8 34.5.1 94.7c0 52.2.2 94.8.4 94.8s10.4-.9 22.6-2c24.1-2.2 29.8-3.6 37.5-9.1 2.5-1.8 6.3-5.8 8.3-8.9 4.4-6.6 1.3.1 73-156.5 50.4-110 58.1-126.1 60.2-126.7 1.4-.4 8.4-1.4 15.5-2.3 30-3.8 85.8-14 129.5-23.6 137.7-30.5 221.4-66.6 239.6-103.3 3.6-7.4 3.9-8.6 3.9-16.6 0-7.6-.3-9.2-3.3-15.2-6.2-12.6-16.2-18.3-48.2-27.7-26.9-7.9-29.1-8.7-46.6-17s-23.3-9.8-42.9-11.1c-29.4-2-52.3 2.1-86.5 15.5-7.4 2.9-14.4 5.5-15.5 5.9-1.1.4-11.4 2.5-23 4.7-11.5 2.2-36.3 6.9-55 10.4C852.9 260.4 823 266 821.2 266c-1.1 0-31.6-11.5-67.8-25.6-236.5-91.9-435.2-169.1-571.3-222C131.6-1.2 132.9-.9 120 1.1z"/></svg>